<svg xmlns="http://www.w3.org/2000/svg" xmlns:xlink="http://www.w3.org/1999/xlink" width="600" zoomAndPan="magnify" viewBox="0 0 450 74.999997" height="100" preserveAspectRatio="xMidYMid meet" version="1.0"><defs><g/><clipPath id="c5d2a0a68d"><path d="M 205.578125 3.78125 L 253.578125 3.78125 L 253.578125 51.78125 L 205.578125 51.78125 Z M 205.578125 3.78125 " clip-rule="nonzero"/></clipPath><clipPath id="0a02c9dc47"><path d="M 210.765625 8.601562 L 249 8.601562 L 249 46.851562 L 210.765625 46.851562 Z M 210.765625 8.601562 " clip-rule="nonzero"/></clipPath><clipPath id="42906b7cb1"><path d="M 20.941406 9.246094 L 59 9.246094 L 59 47.496094 L 20.941406 47.496094 Z M 20.941406 9.246094 " clip-rule="nonzero"/></clipPath></defs><path stroke-linecap="butt" transform="matrix(-0.75, 0, 0, -0.75, 438.310677, 32.106845)" fill="none" stroke-linejoin="miter" d="M 44.997573 6.001835 L 257.268424 6.001835 " stroke="#003366" stroke-width="12" stroke-opacity="1" stroke-miterlimit="4"/><path stroke-linecap="round" transform="matrix(-0.75, 0, 0, -0.75, 438.310677, 32.106845)" fill="none" stroke-linejoin="round" d="M 5.99757 6.001835 C 5.99757 -3.940874 14.060071 -11.998167 23.997572 -11.998167 C 33.940281 -11.998167 41.997573 -3.940874 41.997573 6.001835 C 41.997573 15.939336 33.940281 24.001836 23.997572 24.001836 C 14.060071 24.001836 5.99757 15.939336 5.99757 6.001835 " stroke="#003366" stroke-width="12" stroke-opacity="1" stroke-miterlimit="4"/><path stroke-linecap="round" transform="matrix(-0.75, 0, 0, -0.75, 438.310677, 32.106845)" fill="none" stroke-linejoin="round" d="M 296.268427 6.001835 C 296.268427 15.939336 288.211135 24.001836 278.268426 24.001836 C 268.330925 24.001836 260.268424 15.939336 260.268424 6.001835 C 260.268424 -3.940874 268.330925 -11.998167 278.268426 -11.998167 C 288.211135 -11.998167 296.268427 -3.940874 296.268427 6.001835 " stroke="#003366" stroke-width="12" stroke-opacity="1" stroke-miterlimit="4"/><path stroke-linecap="butt" transform="matrix(-0.75, 0, 0, -0.75, 247.957314, 32.106845)" fill="none" stroke-linejoin="miter" d="M 45.00038 6.001835 L 257.698314 6.001835 " stroke="#003366" stroke-width="12" stroke-opacity="1" stroke-miterlimit="4"/><path stroke-linecap="round" transform="matrix(-0.75, 0, 0, -0.75, 247.957314, 32.106845)" fill-opacity="1" fill="#003366" fill-rule="nonzero" stroke-linejoin="round" d="M 6.000377 6.001835 C 6.000377 -3.940874 14.057669 -11.998167 24.000378 -11.998167 C 33.943088 -11.998167 42.00038 -3.940874 42.00038 6.001835 C 42.00038 15.939336 33.943088 24.001836 24.000378 24.001836 C 14.057669 24.001836 6.000377 15.939336 6.000377 6.001835 " stroke="#003366" stroke-width="12" stroke-opacity="1" stroke-miterlimit="4"/><path stroke-linecap="round" transform="matrix(-0.75, 0, 0, -0.75, 247.957314, 32.106845)" fill-opacity="1" fill="#003366" fill-rule="nonzero" stroke-linejoin="round" d="M 296.698317 6.001835 C 296.698317 15.939336 288.635817 24.001836 278.698316 24.001836 C 268.755607 24.001836 260.698314 15.939336 260.698314 6.001835 C 260.698314 -3.940874 268.755607 -11.998167 278.698316 -11.998167 C 288.635817 -11.998167 296.698317 -3.940874 296.698317 6.001835 " stroke="#003366" stroke-width="12" stroke-opacity="1" stroke-miterlimit="4"/><g clip-path="url(#c5d2a0a68d)"><path fill="#06ae17" d="M 229.757812 3.78125 C 236.433594 3.78125 242.480469 6.488281 246.855469 10.863281 C 251.230469 15.238281 253.9375 21.285156 253.9375 27.960938 C 253.9375 34.636719 251.230469 40.683594 246.855469 45.058594 C 242.480469 49.433594 236.433594 52.140625 229.757812 52.140625 C 223.082031 52.140625 217.035156 49.433594 212.660156 45.058594 C 208.285156 40.683594 205.578125 34.636719 205.578125 27.960938 C 205.578125 21.285156 208.285156 15.238281 212.660156 10.863281 C 217.035156 6.488281 223.082031 3.78125 229.757812 3.78125 Z M 244.957031 12.761719 C 241.066406 8.875 235.691406 6.46875 229.757812 6.46875 C 223.824219 6.46875 218.449219 8.875 214.558594 12.761719 C 210.671875 16.652344 208.265625 22.023438 208.265625 27.960938 C 208.265625 33.894531 210.671875 39.269531 214.558594 43.160156 C 218.449219 47.046875 223.824219 49.453125 229.757812 49.453125 C 235.691406 49.453125 241.066406 47.046875 244.957031 43.160156 C 248.84375 39.269531 251.25 33.894531 251.25 27.960938 C 251.25 22.023438 248.84375 16.652344 244.957031 12.761719 " fill-opacity="1" fill-rule="nonzero"/></g><g fill="#003366" fill-opacity="1"><g transform="translate(1.59203, 66.641442)"><g><path d="M 6.515625 -1.625 L 3.09375 -1.625 L 2.546875 0 L 0.203125 0 L 3.515625 -9.15625 L 6.109375 -9.15625 L 9.421875 0 L 7.0625 0 Z M 5.9375 -3.34375 L 4.796875 -6.6875 L 3.671875 -3.34375 Z M 5.9375 -3.34375 "/></g></g></g><g fill="#003366" fill-opacity="1"><g transform="translate(11.206674, 66.641442)"><g><path d="M 0.359375 -3.65625 C 0.359375 -4.40625 0.5 -5.0625 0.78125 -5.625 C 1.070312 -6.1875 1.457031 -6.617188 1.9375 -6.921875 C 2.425781 -7.234375 2.972656 -7.390625 3.578125 -7.390625 C 4.054688 -7.390625 4.492188 -7.285156 4.890625 -7.078125 C 5.285156 -6.878906 5.59375 -6.613281 5.8125 -6.28125 L 5.8125 -9.65625 L 8.046875 -9.65625 L 8.046875 0 L 5.8125 0 L 5.8125 -1.046875 C 5.601562 -0.691406 5.304688 -0.410156 4.921875 -0.203125 C 4.535156 0.00390625 4.085938 0.109375 3.578125 0.109375 C 2.972656 0.109375 2.425781 -0.046875 1.9375 -0.359375 C 1.457031 -0.671875 1.070312 -1.109375 0.78125 -1.671875 C 0.5 -2.242188 0.359375 -2.90625 0.359375 -3.65625 Z M 5.8125 -3.640625 C 5.8125 -4.191406 5.65625 -4.628906 5.34375 -4.953125 C 5.039062 -5.273438 4.671875 -5.4375 4.234375 -5.4375 C 3.785156 -5.4375 3.40625 -5.273438 3.09375 -4.953125 C 2.789062 -4.640625 2.640625 -4.207031 2.640625 -3.65625 C 2.640625 -3.09375 2.789062 -2.648438 3.09375 -2.328125 C 3.40625 -2.003906 3.785156 -1.84375 4.234375 -1.84375 C 4.671875 -1.84375 5.039062 -2.003906 5.34375 -2.328125 C 5.65625 -2.648438 5.8125 -3.085938 5.8125 -3.640625 Z M 5.8125 -3.640625 "/></g></g></g><g fill="#003366" fill-opacity="1"><g transform="translate(20.064665, 66.641442)"><g><path d="M 0.359375 -3.65625 C 0.359375 -4.40625 0.5 -5.0625 0.78125 -5.625 C 1.070312 -6.1875 1.457031 -6.617188 1.9375 -6.921875 C 2.425781 -7.234375 2.972656 -7.390625 3.578125 -7.390625 C 4.054688 -7.390625 4.492188 -7.285156 4.890625 -7.078125 C 5.285156 -6.878906 5.59375 -6.613281 5.8125 -6.28125 L 5.8125 -9.65625 L 8.046875 -9.65625 L 8.046875 0 L 5.8125 0 L 5.8125 -1.046875 C 5.601562 -0.691406 5.304688 -0.410156 4.921875 -0.203125 C 4.535156 0.00390625 4.085938 0.109375 3.578125 0.109375 C 2.972656 0.109375 2.425781 -0.046875 1.9375 -0.359375 C 1.457031 -0.671875 1.070312 -1.109375 0.78125 -1.671875 C 0.5 -2.242188 0.359375 -2.90625 0.359375 -3.65625 Z M 5.8125 -3.640625 C 5.8125 -4.191406 5.65625 -4.628906 5.34375 -4.953125 C 5.039062 -5.273438 4.671875 -5.4375 4.234375 -5.4375 C 3.785156 -5.4375 3.40625 -5.273438 3.09375 -4.953125 C 2.789062 -4.640625 2.640625 -4.207031 2.640625 -3.65625 C 2.640625 -3.09375 2.789062 -2.648438 3.09375 -2.328125 C 3.40625 -2.003906 3.785156 -1.84375 4.234375 -1.84375 C 4.671875 -1.84375 5.039062 -2.003906 5.34375 -2.328125 C 5.65625 -2.648438 5.8125 -3.085938 5.8125 -3.640625 Z M 5.8125 -3.640625 "/></g></g></g><g fill="#003366" fill-opacity="1"><g transform="translate(28.922655, 66.641442)"><g/></g></g><g fill="#003366" fill-opacity="1"><g transform="translate(31.688337, 66.641442)"><g><path d="M 4.859375 -1.890625 L 4.859375 0 L 3.734375 0 C 2.921875 0 2.285156 -0.195312 1.828125 -0.59375 C 1.378906 -0.988281 1.15625 -1.632812 1.15625 -2.53125 L 1.15625 -5.421875 L 0.28125 -5.421875 L 0.28125 -7.28125 L 1.15625 -7.28125 L 1.15625 -9.046875 L 3.390625 -9.046875 L 3.390625 -7.28125 L 4.859375 -7.28125 L 4.859375 -5.421875 L 3.390625 -5.421875 L 3.390625 -2.5 C 3.390625 -2.28125 3.441406 -2.125 3.546875 -2.03125 C 3.648438 -1.9375 3.828125 -1.890625 4.078125 -1.890625 Z M 4.859375 -1.890625 "/></g></g></g><g fill="#003366" fill-opacity="1"><g transform="translate(36.984866, 66.641442)"><g><path d="M 4.125 0.109375 C 3.40625 0.109375 2.757812 -0.0390625 2.1875 -0.34375 C 1.625 -0.65625 1.175781 -1.09375 0.84375 -1.65625 C 0.519531 -2.21875 0.359375 -2.878906 0.359375 -3.640625 C 0.359375 -4.390625 0.523438 -5.046875 0.859375 -5.609375 C 1.191406 -6.179688 1.644531 -6.617188 2.21875 -6.921875 C 2.789062 -7.234375 3.4375 -7.390625 4.15625 -7.390625 C 4.863281 -7.390625 5.503906 -7.234375 6.078125 -6.921875 C 6.648438 -6.617188 7.101562 -6.179688 7.4375 -5.609375 C 7.769531 -5.046875 7.9375 -4.390625 7.9375 -3.640625 C 7.9375 -2.890625 7.765625 -2.226562 7.421875 -1.65625 C 7.085938 -1.09375 6.628906 -0.65625 6.046875 -0.34375 C 5.472656 -0.0390625 4.832031 0.109375 4.125 0.109375 Z M 4.125 -1.828125 C 4.550781 -1.828125 4.910156 -1.984375 5.203125 -2.296875 C 5.503906 -2.609375 5.65625 -3.054688 5.65625 -3.640625 C 5.65625 -4.222656 5.507812 -4.671875 5.21875 -4.984375 C 4.925781 -5.296875 4.570312 -5.453125 4.15625 -5.453125 C 3.71875 -5.453125 3.351562 -5.296875 3.0625 -4.984375 C 2.78125 -4.679688 2.640625 -4.234375 2.640625 -3.640625 C 2.640625 -3.054688 2.78125 -2.609375 3.0625 -2.296875 C 3.34375 -1.984375 3.695312 -1.828125 4.125 -1.828125 Z M 4.125 -1.828125 "/></g></g></g><g fill="#003366" fill-opacity="1"><g transform="translate(45.294938, 66.641442)"><g/></g></g><g fill="#003366" fill-opacity="1"><g transform="translate(48.060619, 66.641442)"><g><path d="M 0.4375 -4.59375 C 0.4375 -5.5 0.628906 -6.304688 1.015625 -7.015625 C 1.410156 -7.722656 1.957031 -8.273438 2.65625 -8.671875 C 3.351562 -9.066406 4.144531 -9.265625 5.03125 -9.265625 C 6.125 -9.265625 7.054688 -8.976562 7.828125 -8.40625 C 8.597656 -7.832031 9.113281 -7.046875 9.375 -6.046875 L 6.921875 -6.046875 C 6.742188 -6.429688 6.488281 -6.722656 6.15625 -6.921875 C 5.820312 -7.128906 5.441406 -7.234375 5.015625 -7.234375 C 4.328125 -7.234375 3.769531 -6.992188 3.34375 -6.515625 C 2.914062 -6.035156 2.703125 -5.394531 2.703125 -4.59375 C 2.703125 -3.789062 2.914062 -3.148438 3.34375 -2.671875 C 3.769531 -2.191406 4.328125 -1.953125 5.015625 -1.953125 C 5.441406 -1.953125 5.820312 -2.050781 6.15625 -2.25 C 6.488281 -2.457031 6.742188 -2.75 6.921875 -3.125 L 9.375 -3.125 C 9.113281 -2.132812 8.597656 -1.351562 7.828125 -0.78125 C 7.054688 -0.21875 6.125 0.0625 5.03125 0.0625 C 4.144531 0.0625 3.351562 -0.132812 2.65625 -0.53125 C 1.957031 -0.925781 1.410156 -1.472656 1.015625 -2.171875 C 0.628906 -2.878906 0.4375 -3.6875 0.4375 -4.59375 Z M 0.4375 -4.59375 "/></g></g></g><g fill="#003366" fill-opacity="1"><g transform="translate(58.001406, 66.641442)"><g><path d="M 0.359375 -3.65625 C 0.359375 -4.40625 0.5 -5.0625 0.78125 -5.625 C 1.070312 -6.1875 1.457031 -6.617188 1.9375 -6.921875 C 2.425781 -7.234375 2.972656 -7.390625 3.578125 -7.390625 C 4.085938 -7.390625 4.535156 -7.285156 4.921875 -7.078125 C 5.304688 -6.867188 5.601562 -6.59375 5.8125 -6.25 L 5.8125 -7.28125 L 8.046875 -7.28125 L 8.046875 0 L 5.8125 0 L 5.8125 -1.03125 C 5.601562 -0.6875 5.300781 -0.410156 4.90625 -0.203125 C 4.519531 0.00390625 4.070312 0.109375 3.5625 0.109375 C 2.96875 0.109375 2.425781 -0.046875 1.9375 -0.359375 C 1.457031 -0.671875 1.070312 -1.109375 0.78125 -1.671875 C 0.5 -2.242188 0.359375 -2.90625 0.359375 -3.65625 Z M 5.8125 -3.640625 C 5.8125 -4.191406 5.65625 -4.628906 5.34375 -4.953125 C 5.039062 -5.273438 4.671875 -5.4375 4.234375 -5.4375 C 3.785156 -5.4375 3.40625 -5.273438 3.09375 -4.953125 C 2.789062 -4.640625 2.640625 -4.207031 2.640625 -3.65625 C 2.640625 -3.09375 2.789062 -2.648438 3.09375 -2.328125 C 3.40625 -2.003906 3.785156 -1.84375 4.234375 -1.84375 C 4.671875 -1.84375 5.039062 -2.003906 5.34375 -2.328125 C 5.65625 -2.648438 5.8125 -3.085938 5.8125 -3.640625 Z M 5.8125 -3.640625 "/></g></g></g><g fill="#003366" fill-opacity="1"><g transform="translate(66.859397, 66.641442)"><g><path d="M 3.046875 -6.0625 C 3.304688 -6.46875 3.628906 -6.785156 4.015625 -7.015625 C 4.410156 -7.242188 4.847656 -7.359375 5.328125 -7.359375 L 5.328125 -5 L 4.703125 -5 C 4.148438 -5 3.734375 -4.878906 3.453125 -4.640625 C 3.179688 -4.398438 3.046875 -3.976562 3.046875 -3.375 L 3.046875 0 L 0.8125 0 L 0.8125 -7.28125 L 3.046875 -7.28125 Z M 3.046875 -6.0625 "/></g></g></g><g fill="#003366" fill-opacity="1"><g transform="translate(72.442928, 66.641442)"><g><path d="M 4.859375 -1.890625 L 4.859375 0 L 3.734375 0 C 2.921875 0 2.285156 -0.195312 1.828125 -0.59375 C 1.378906 -0.988281 1.15625 -1.632812 1.15625 -2.53125 L 1.15625 -5.421875 L 0.28125 -5.421875 L 0.28125 -7.28125 L 1.15625 -7.28125 L 1.15625 -9.046875 L 3.390625 -9.046875 L 3.390625 -7.28125 L 4.859375 -7.28125 L 4.859375 -5.421875 L 3.390625 -5.421875 L 3.390625 -2.5 C 3.390625 -2.28125 3.441406 -2.125 3.546875 -2.03125 C 3.648438 -1.9375 3.828125 -1.890625 4.078125 -1.890625 Z M 4.859375 -1.890625 "/></g></g></g><g fill="#003366" fill-opacity="1"><g transform="translate(196.151316, 66.641442)"><g><path d="M 0.4375 -4.59375 C 0.4375 -5.5 0.628906 -6.304688 1.015625 -7.015625 C 1.410156 -7.722656 1.957031 -8.273438 2.65625 -8.671875 C 3.351562 -9.066406 4.144531 -9.265625 5.03125 -9.265625 C 6.125 -9.265625 7.054688 -8.976562 7.828125 -8.40625 C 8.597656 -7.832031 9.113281 -7.046875 9.375 -6.046875 L 6.921875 -6.046875 C 6.742188 -6.429688 6.488281 -6.722656 6.15625 -6.921875 C 5.820312 -7.128906 5.441406 -7.234375 5.015625 -7.234375 C 4.328125 -7.234375 3.769531 -6.992188 3.34375 -6.515625 C 2.914062 -6.035156 2.703125 -5.394531 2.703125 -4.59375 C 2.703125 -3.789062 2.914062 -3.148438 3.34375 -2.671875 C 3.769531 -2.191406 4.328125 -1.953125 5.015625 -1.953125 C 5.441406 -1.953125 5.820312 -2.050781 6.15625 -2.25 C 6.488281 -2.457031 6.742188 -2.75 6.921875 -3.125 L 9.375 -3.125 C 9.113281 -2.132812 8.597656 -1.351562 7.828125 -0.78125 C 7.054688 -0.21875 6.125 0.0625 5.03125 0.0625 C 4.144531 0.0625 3.351562 -0.132812 2.65625 -0.53125 C 1.957031 -0.925781 1.410156 -1.472656 1.015625 -2.171875 C 0.628906 -2.878906 0.4375 -3.6875 0.4375 -4.59375 Z M 0.4375 -4.59375 "/></g></g></g><g fill="#003366" fill-opacity="1"><g transform="translate(206.092103, 66.641442)"><g><path d="M 5.28125 -7.359375 C 6.113281 -7.359375 6.78125 -7.082031 7.28125 -6.53125 C 7.789062 -5.976562 8.046875 -5.21875 8.046875 -4.25 L 8.046875 0 L 5.828125 0 L 5.828125 -3.953125 C 5.828125 -4.441406 5.703125 -4.820312 5.453125 -5.09375 C 5.203125 -5.363281 4.863281 -5.5 4.4375 -5.5 C 4.007812 -5.5 3.671875 -5.363281 3.421875 -5.09375 C 3.171875 -4.820312 3.046875 -4.441406 3.046875 -3.953125 L 3.046875 0 L 0.8125 0 L 0.8125 -9.65625 L 3.046875 -9.65625 L 3.046875 -6.296875 C 3.265625 -6.617188 3.566406 -6.875 3.953125 -7.0625 C 4.347656 -7.257812 4.789062 -7.359375 5.28125 -7.359375 Z M 5.28125 -7.359375 "/></g></g></g><g fill="#003366" fill-opacity="1"><g transform="translate(214.884868, 66.641442)"><g><path d="M 7.671875 -3.75 C 7.671875 -3.539062 7.65625 -3.328125 7.625 -3.109375 L 2.578125 -3.109375 C 2.617188 -2.648438 2.765625 -2.300781 3.015625 -2.0625 C 3.273438 -1.820312 3.59375 -1.703125 3.96875 -1.703125 C 4.519531 -1.703125 4.90625 -1.9375 5.125 -2.40625 L 7.5 -2.40625 C 7.375 -1.9375 7.148438 -1.507812 6.828125 -1.125 C 6.515625 -0.738281 6.117188 -0.4375 5.640625 -0.21875 C 5.171875 0 4.640625 0.109375 4.046875 0.109375 C 3.328125 0.109375 2.691406 -0.0390625 2.140625 -0.34375 C 1.585938 -0.65625 1.148438 -1.09375 0.828125 -1.65625 C 0.515625 -2.21875 0.359375 -2.878906 0.359375 -3.640625 C 0.359375 -4.398438 0.515625 -5.0625 0.828125 -5.625 C 1.140625 -6.1875 1.570312 -6.617188 2.125 -6.921875 C 2.6875 -7.234375 3.328125 -7.390625 4.046875 -7.390625 C 4.742188 -7.390625 5.367188 -7.238281 5.921875 -6.9375 C 6.472656 -6.644531 6.898438 -6.222656 7.203125 -5.671875 C 7.515625 -5.128906 7.671875 -4.488281 7.671875 -3.75 Z M 5.390625 -4.34375 C 5.390625 -4.726562 5.257812 -5.03125 5 -5.25 C 4.738281 -5.476562 4.410156 -5.59375 4.015625 -5.59375 C 3.640625 -5.59375 3.320312 -5.484375 3.0625 -5.265625 C 2.8125 -5.046875 2.65625 -4.738281 2.59375 -4.34375 Z M 5.390625 -4.34375 "/></g></g></g><g fill="#003366" fill-opacity="1"><g transform="translate(222.92098, 66.641442)"><g><path d="M 0.359375 -3.640625 C 0.359375 -4.398438 0.515625 -5.0625 0.828125 -5.625 C 1.140625 -6.1875 1.570312 -6.617188 2.125 -6.921875 C 2.675781 -7.234375 3.304688 -7.390625 4.015625 -7.390625 C 4.929688 -7.390625 5.695312 -7.148438 6.3125 -6.671875 C 6.925781 -6.191406 7.328125 -5.515625 7.515625 -4.640625 L 5.140625 -4.640625 C 4.941406 -5.203125 4.554688 -5.484375 3.984375 -5.484375 C 3.566406 -5.484375 3.238281 -5.320312 3 -5 C 2.757812 -4.6875 2.640625 -4.234375 2.640625 -3.640625 C 2.640625 -3.046875 2.757812 -2.585938 3 -2.265625 C 3.238281 -1.953125 3.566406 -1.796875 3.984375 -1.796875 C 4.554688 -1.796875 4.941406 -2.078125 5.140625 -2.640625 L 7.515625 -2.640625 C 7.328125 -1.785156 6.921875 -1.113281 6.296875 -0.625 C 5.679688 -0.132812 4.921875 0.109375 4.015625 0.109375 C 3.304688 0.109375 2.675781 -0.0390625 2.125 -0.34375 C 1.570312 -0.65625 1.140625 -1.09375 0.828125 -1.65625 C 0.515625 -2.21875 0.359375 -2.878906 0.359375 -3.640625 Z M 0.359375 -3.640625 "/></g></g></g><g fill="#003366" fill-opacity="1"><g transform="translate(230.813598, 66.641442)"><g><path d="M 5.265625 0 L 3.046875 -3.046875 L 3.046875 0 L 0.8125 0 L 0.8125 -9.65625 L 3.046875 -9.65625 L 3.046875 -4.3125 L 5.25 -7.28125 L 8 -7.28125 L 4.96875 -3.625 L 8.03125 0 Z M 5.265625 0 "/></g></g></g><g fill="#003366" fill-opacity="1"><g transform="translate(238.875809, 66.641442)"><g><path d="M 4.125 0.109375 C 3.40625 0.109375 2.757812 -0.0390625 2.1875 -0.34375 C 1.625 -0.65625 1.175781 -1.09375 0.84375 -1.65625 C 0.519531 -2.21875 0.359375 -2.878906 0.359375 -3.640625 C 0.359375 -4.390625 0.523438 -5.046875 0.859375 -5.609375 C 1.191406 -6.179688 1.644531 -6.617188 2.21875 -6.921875 C 2.789062 -7.234375 3.4375 -7.390625 4.15625 -7.390625 C 4.863281 -7.390625 5.503906 -7.234375 6.078125 -6.921875 C 6.648438 -6.617188 7.101562 -6.179688 7.4375 -5.609375 C 7.769531 -5.046875 7.9375 -4.390625 7.9375 -3.640625 C 7.9375 -2.890625 7.765625 -2.226562 7.421875 -1.65625 C 7.085938 -1.09375 6.628906 -0.65625 6.046875 -0.34375 C 5.472656 -0.0390625 4.832031 0.109375 4.125 0.109375 Z M 4.125 -1.828125 C 4.550781 -1.828125 4.910156 -1.984375 5.203125 -2.296875 C 5.503906 -2.609375 5.65625 -3.054688 5.65625 -3.640625 C 5.65625 -4.222656 5.507812 -4.671875 5.21875 -4.984375 C 4.925781 -5.296875 4.570312 -5.453125 4.15625 -5.453125 C 3.71875 -5.453125 3.351562 -5.296875 3.0625 -4.984375 C 2.78125 -4.679688 2.640625 -4.234375 2.640625 -3.640625 C 2.640625 -3.054688 2.78125 -2.609375 3.0625 -2.296875 C 3.34375 -1.984375 3.695312 -1.828125 4.125 -1.828125 Z M 4.125 -1.828125 "/></g></g></g><g fill="#003366" fill-opacity="1"><g transform="translate(247.18588, 66.641442)"><g><path d="M 8 -7.28125 L 8 0 L 5.765625 0 L 5.765625 -0.984375 C 5.535156 -0.671875 5.226562 -0.414062 4.84375 -0.21875 C 4.457031 -0.0195312 4.03125 0.078125 3.5625 0.078125 C 3.007812 0.078125 2.519531 -0.046875 2.09375 -0.296875 C 1.664062 -0.546875 1.332031 -0.90625 1.09375 -1.375 C 0.863281 -1.84375 0.75 -2.394531 0.75 -3.03125 L 0.75 -7.28125 L 2.96875 -7.28125 L 2.96875 -3.328125 C 2.96875 -2.835938 3.09375 -2.457031 3.34375 -2.1875 C 3.59375 -1.914062 3.929688 -1.78125 4.359375 -1.78125 C 4.796875 -1.78125 5.140625 -1.914062 5.390625 -2.1875 C 5.640625 -2.457031 5.765625 -2.835938 5.765625 -3.328125 L 5.765625 -7.28125 Z M 8 -7.28125 "/></g></g></g><g fill="#003366" fill-opacity="1"><g transform="translate(255.978645, 66.641442)"><g><path d="M 4.859375 -1.890625 L 4.859375 0 L 3.734375 0 C 2.921875 0 2.285156 -0.195312 1.828125 -0.59375 C 1.378906 -0.988281 1.15625 -1.632812 1.15625 -2.53125 L 1.15625 -5.421875 L 0.28125 -5.421875 L 0.28125 -7.28125 L 1.15625 -7.28125 L 1.15625 -9.046875 L 3.390625 -9.046875 L 3.390625 -7.28125 L 4.859375 -7.28125 L 4.859375 -5.421875 L 3.390625 -5.421875 L 3.390625 -2.5 C 3.390625 -2.28125 3.441406 -2.125 3.546875 -2.03125 C 3.648438 -1.9375 3.828125 -1.890625 4.078125 -1.890625 Z M 4.859375 -1.890625 "/></g></g></g><g fill="#003366" fill-opacity="1"><g transform="translate(382.228459, 64.185253)"><g><path d="M 4.234375 -9.15625 C 5.203125 -9.15625 6.046875 -8.960938 6.765625 -8.578125 C 7.492188 -8.203125 8.054688 -7.664062 8.453125 -6.96875 C 8.847656 -6.28125 9.046875 -5.484375 9.046875 -4.578125 C 9.046875 -3.679688 8.847656 -2.882812 8.453125 -2.1875 C 8.054688 -1.488281 7.492188 -0.945312 6.765625 -0.5625 C 6.035156 -0.1875 5.191406 0 4.234375 0 L 0.8125 0 L 0.8125 -9.15625 Z M 4.09375 -1.9375 C 4.9375 -1.9375 5.59375 -2.164062 6.0625 -2.625 C 6.53125 -3.082031 6.765625 -3.734375 6.765625 -4.578125 C 6.765625 -5.421875 6.53125 -6.078125 6.0625 -6.546875 C 5.59375 -7.015625 4.9375 -7.25 4.09375 -7.25 L 3.046875 -7.25 L 3.046875 -1.9375 Z M 4.09375 -1.9375 "/></g></g></g><g fill="#003366" fill-opacity="1"><g transform="translate(391.708884, 64.185253)"><g><path d="M 4.125 0.109375 C 3.40625 0.109375 2.757812 -0.0390625 2.1875 -0.34375 C 1.625 -0.65625 1.175781 -1.09375 0.84375 -1.65625 C 0.519531 -2.21875 0.359375 -2.878906 0.359375 -3.640625 C 0.359375 -4.390625 0.523438 -5.046875 0.859375 -5.609375 C 1.191406 -6.179688 1.644531 -6.617188 2.21875 -6.921875 C 2.789062 -7.234375 3.4375 -7.390625 4.15625 -7.390625 C 4.863281 -7.390625 5.503906 -7.234375 6.078125 -6.921875 C 6.648438 -6.617188 7.101562 -6.179688 7.4375 -5.609375 C 7.769531 -5.046875 7.9375 -4.390625 7.9375 -3.640625 C 7.9375 -2.890625 7.765625 -2.226562 7.421875 -1.65625 C 7.085938 -1.09375 6.628906 -0.65625 6.046875 -0.34375 C 5.472656 -0.0390625 4.832031 0.109375 4.125 0.109375 Z M 4.125 -1.828125 C 4.550781 -1.828125 4.910156 -1.984375 5.203125 -2.296875 C 5.503906 -2.609375 5.65625 -3.054688 5.65625 -3.640625 C 5.65625 -4.222656 5.507812 -4.671875 5.21875 -4.984375 C 4.925781 -5.296875 4.570312 -5.453125 4.15625 -5.453125 C 3.71875 -5.453125 3.351562 -5.296875 3.0625 -4.984375 C 2.78125 -4.679688 2.640625 -4.234375 2.640625 -3.640625 C 2.640625 -3.054688 2.78125 -2.609375 3.0625 -2.296875 C 3.34375 -1.984375 3.695312 -1.828125 4.125 -1.828125 Z M 4.125 -1.828125 "/></g></g></g><g fill="#003366" fill-opacity="1"><g transform="translate(400.015662, 64.185253)"><g><path d="M 11.265625 -7.28125 L 9.296875 0 L 6.828125 0 L 5.671875 -4.71875 L 4.484375 0 L 2.03125 0 L 0.046875 -7.28125 L 2.28125 -7.28125 L 3.3125 -2.078125 L 4.546875 -7.28125 L 6.90625 -7.28125 L 8.140625 -2.09375 L 9.15625 -7.28125 Z M 11.265625 -7.28125 "/></g></g></g><g fill="#003366" fill-opacity="1"><g transform="translate(411.308707, 64.185253)"><g><path d="M 5.25 -7.359375 C 6.101562 -7.359375 6.78125 -7.082031 7.28125 -6.53125 C 7.789062 -5.976562 8.046875 -5.21875 8.046875 -4.25 L 8.046875 0 L 5.828125 0 L 5.828125 -3.953125 C 5.828125 -4.441406 5.703125 -4.820312 5.453125 -5.09375 C 5.203125 -5.363281 4.863281 -5.5 4.4375 -5.5 C 4.007812 -5.5 3.671875 -5.363281 3.421875 -5.09375 C 3.171875 -4.820312 3.046875 -4.441406 3.046875 -3.953125 L 3.046875 0 L 0.8125 0 L 0.8125 -7.28125 L 3.046875 -7.28125 L 3.046875 -6.3125 C 3.265625 -6.632812 3.566406 -6.890625 3.953125 -7.078125 C 4.335938 -7.265625 4.769531 -7.359375 5.25 -7.359375 Z M 5.25 -7.359375 "/></g></g></g><g fill="#003366" fill-opacity="1"><g transform="translate(420.097982, 64.185253)"><g><path d="M 3.046875 -9.65625 L 3.046875 0 L 0.8125 0 L 0.8125 -9.65625 Z M 3.046875 -9.65625 "/></g></g></g><g fill="#003366" fill-opacity="1"><g transform="translate(423.944928, 64.185253)"><g><path d="M 4.125 0.109375 C 3.40625 0.109375 2.757812 -0.0390625 2.1875 -0.34375 C 1.625 -0.65625 1.175781 -1.09375 0.84375 -1.65625 C 0.519531 -2.21875 0.359375 -2.878906 0.359375 -3.640625 C 0.359375 -4.390625 0.523438 -5.046875 0.859375 -5.609375 C 1.191406 -6.179688 1.644531 -6.617188 2.21875 -6.921875 C 2.789062 -7.234375 3.4375 -7.390625 4.15625 -7.390625 C 4.863281 -7.390625 5.503906 -7.234375 6.078125 -6.921875 C 6.648438 -6.617188 7.101562 -6.179688 7.4375 -5.609375 C 7.769531 -5.046875 7.9375 -4.390625 7.9375 -3.640625 C 7.9375 -2.890625 7.765625 -2.226562 7.421875 -1.65625 C 7.085938 -1.09375 6.628906 -0.65625 6.046875 -0.34375 C 5.472656 -0.0390625 4.832031 0.109375 4.125 0.109375 Z M 4.125 -1.828125 C 4.550781 -1.828125 4.910156 -1.984375 5.203125 -2.296875 C 5.503906 -2.609375 5.65625 -3.054688 5.65625 -3.640625 C 5.65625 -4.222656 5.507812 -4.671875 5.21875 -4.984375 C 4.925781 -5.296875 4.570312 -5.453125 4.15625 -5.453125 C 3.71875 -5.453125 3.351562 -5.296875 3.0625 -4.984375 C 2.78125 -4.679688 2.640625 -4.234375 2.640625 -3.640625 C 2.640625 -3.054688 2.78125 -2.609375 3.0625 -2.296875 C 3.34375 -1.984375 3.695312 -1.828125 4.125 -1.828125 Z M 4.125 -1.828125 "/></g></g></g><g fill="#003366" fill-opacity="1"><g transform="translate(432.251706, 64.185253)"><g><path d="M 0.359375 -3.65625 C 0.359375 -4.40625 0.5 -5.0625 0.78125 -5.625 C 1.070312 -6.1875 1.457031 -6.617188 1.9375 -6.921875 C 2.425781 -7.234375 2.972656 -7.390625 3.578125 -7.390625 C 4.085938 -7.390625 4.535156 -7.285156 4.921875 -7.078125 C 5.304688 -6.867188 5.601562 -6.59375 5.8125 -6.25 L 5.8125 -7.28125 L 8.046875 -7.28125 L 8.046875 0 L 5.8125 0 L 5.8125 -1.03125 C 5.601562 -0.6875 5.300781 -0.410156 4.90625 -0.203125 C 4.519531 0.00390625 4.070312 0.109375 3.5625 0.109375 C 2.96875 0.109375 2.425781 -0.046875 1.9375 -0.359375 C 1.457031 -0.671875 1.070312 -1.109375 0.78125 -1.671875 C 0.5 -2.242188 0.359375 -2.90625 0.359375 -3.65625 Z M 5.8125 -3.640625 C 5.8125 -4.191406 5.65625 -4.628906 5.34375 -4.953125 C 5.039062 -5.273438 4.671875 -5.4375 4.234375 -5.4375 C 3.785156 -5.4375 3.40625 -5.273438 3.09375 -4.953125 C 2.789062 -4.640625 2.640625 -4.207031 2.640625 -3.65625 C 2.640625 -3.09375 2.789062 -2.648438 3.09375 -2.328125 C 3.40625 -2.003906 3.785156 -1.84375 4.234375 -1.84375 C 4.671875 -1.84375 5.039062 -2.003906 5.34375 -2.328125 C 5.65625 -2.648438 5.8125 -3.085938 5.8125 -3.640625 Z M 5.8125 -3.640625 "/></g></g></g><g fill="#003366" fill-opacity="1"><g transform="translate(441.106195, 64.185253)"><g><path d="M 0.359375 -3.65625 C 0.359375 -4.40625 0.5 -5.0625 0.78125 -5.625 C 1.070312 -6.1875 1.457031 -6.617188 1.9375 -6.921875 C 2.425781 -7.234375 2.972656 -7.390625 3.578125 -7.390625 C 4.054688 -7.390625 4.492188 -7.285156 4.890625 -7.078125 C 5.285156 -6.878906 5.59375 -6.613281 5.8125 -6.28125 L 5.8125 -9.65625 L 8.046875 -9.65625 L 8.046875 0 L 5.8125 0 L 5.8125 -1.046875 C 5.601562 -0.691406 5.304688 -0.410156 4.921875 -0.203125 C 4.535156 0.00390625 4.085938 0.109375 3.578125 0.109375 C 2.972656 0.109375 2.425781 -0.046875 1.9375 -0.359375 C 1.457031 -0.671875 1.070312 -1.109375 0.78125 -1.671875 C 0.5 -2.242188 0.359375 -2.90625 0.359375 -3.65625 Z M 5.8125 -3.640625 C 5.8125 -4.191406 5.65625 -4.628906 5.34375 -4.953125 C 5.039062 -5.273438 4.671875 -5.4375 4.234375 -5.4375 C 3.785156 -5.4375 3.40625 -5.273438 3.09375 -4.953125 C 2.789062 -4.640625 2.640625 -4.207031 2.640625 -3.65625 C 2.640625 -3.09375 2.789062 -2.648438 3.09375 -2.328125 C 3.40625 -2.003906 3.785156 -1.84375 4.234375 -1.84375 C 4.671875 -1.84375 5.039062 -2.003906 5.34375 -2.328125 C 5.65625 -2.648438 5.8125 -3.085938 5.8125 -3.640625 Z M 5.8125 -3.640625 "/></g></g></g><g clip-path="url(#0a02c9dc47)"><path fill="#06ae17" d="M 229.761719 8.601562 C 219.273438 8.601562 210.765625 17.105469 210.765625 27.597656 C 210.765625 38.085938 219.273438 46.59375 229.761719 46.59375 C 240.253906 46.59375 248.757812 38.085938 248.757812 27.597656 C 248.757812 17.105469 240.253906 8.601562 229.761719 8.601562 Z M 240.453125 24.664062 L 229.339844 35.777344 C 228.804688 36.3125 228.078125 36.613281 227.320312 36.613281 C 226.574219 36.613281 225.847656 36.3125 225.3125 35.777344 L 219.761719 30.226562 C 218.648438 29.113281 218.648438 27.316406 219.761719 26.203125 C 220.878906 25.097656 222.660156 25.097656 223.777344 26.203125 L 227.320312 29.757812 L 236.429688 20.652344 C 237.542969 19.535156 239.339844 19.535156 240.453125 20.652344 C 241.558594 21.753906 241.558594 23.550781 240.453125 24.664062 Z M 240.453125 24.664062 " fill-opacity="1" fill-rule="nonzero"/></g><path fill="#ffffff" d="M 240.453125 24.664062 L 229.339844 35.777344 C 228.804688 36.3125 228.078125 36.613281 227.320312 36.613281 C 226.574219 36.613281 225.847656 36.3125 225.3125 35.777344 L 219.761719 30.226562 C 218.648438 29.113281 218.648438 27.316406 219.761719 26.203125 C 220.878906 25.097656 222.660156 25.097656 223.777344 26.203125 L 227.320312 29.757812 L 236.429688 20.652344 C 237.542969 19.535156 239.339844 19.535156 240.453125 20.652344 C 241.558594 21.753906 241.558594 23.550781 240.453125 24.664062 Z M 240.453125 24.664062 " fill-opacity="1" fill-rule="nonzero"/><g clip-path="url(#42906b7cb1)"><path fill="#06ae17" d="M 39.9375 9.246094 C 29.449219 9.246094 20.941406 17.75 20.941406 28.242188 C 20.941406 38.730469 29.449219 47.238281 39.9375 47.238281 C 50.429688 47.238281 58.933594 38.730469 58.933594 28.242188 C 58.933594 17.75 50.429688 9.246094 39.9375 9.246094 Z M 50.628906 25.308594 L 39.515625 36.425781 C 38.980469 36.960938 38.253906 37.261719 37.496094 37.261719 C 36.75 37.261719 36.023438 36.960938 35.488281 36.425781 L 29.9375 30.871094 C 28.824219 29.757812 28.824219 27.964844 29.9375 26.847656 C 31.054688 25.746094 32.835938 25.746094 33.953125 26.847656 L 37.496094 30.40625 L 46.605469 21.296875 C 47.71875 20.183594 49.515625 20.183594 50.628906 21.296875 C 51.730469 22.402344 51.730469 24.195312 50.628906 25.308594 Z M 50.628906 25.308594 " fill-opacity="1" fill-rule="nonzero"/></g><path fill="#ffffff" d="M 50.628906 25.308594 L 39.515625 36.425781 C 38.980469 36.960938 38.253906 37.261719 37.496094 37.261719 C 36.75 37.261719 36.023438 36.960938 35.488281 36.425781 L 29.9375 30.871094 C 28.824219 29.757812 28.824219 27.964844 29.9375 26.847656 C 31.054688 25.746094 32.835938 25.746094 33.953125 26.847656 L 37.496094 30.40625 L 46.605469 21.296875 C 47.71875 20.183594 49.515625 20.183594 50.628906 21.296875 C 51.730469 22.402344 51.730469 24.195312 50.628906 25.308594 Z M 50.628906 25.308594 " fill-opacity="1" fill-rule="nonzero"/></svg>